<svg xmlns="http://www.w3.org/2000/svg" width="190" height="93" fill="none"><circle cx="46.5" cy="46.5" r="46.5" fill="#FFD1BF"/><path fill="#2C2C2C" fill-opacity=".8" d="M34.212 19.467c-8.2.703-9.415 9.34-9.187 12.529.228 3.189 2.885 3.189 3.037-.38.152-3.569 1.615-9.82 7.365-9.871 5.75-.05 7.517-5.847 7.214-7.745 0 0-.228 4.764-8.428 5.467zm20.059 18.066c-.37-.835.076-7.973.988-7.213.91.759.455 2.81 1.594 5.618 1.14 2.81-2.21 2.43-2.582 1.595z"/><path fill="url(#a)" d="M54.398 53.12c-3.22-13.392-12.994-20.468-5.4-38.12-5.143 9.232-7.831 16.435-.475 32.033C55.879 62.63 46.862 71 46.862 71s10.757-4.49 7.536-17.88z"/><path fill="#2C2C2C" fill-opacity=".8" d="M44.305 56.294c-1.594-11.542-2.582-12.073-10.554-24.982 16.629 35.156-1.595 43.66-1.595 43.66-2.353 2.886.152 5.316 2.81 4.177 2.657-1.14 10.934-11.314 9.34-22.855zM63.53 22.306c-5.011-2.192-3.292-1.48-5.999-2.885 0 0 0 1.29 3.114 3.569 3.113 2.278 4.48 4.328 2.885 6.53-1.594 2.202-.76 5.842 1.898 4.024 2.658-1.818 3.113-9.045-1.898-11.238z"/><path fill="#2C2C2C" d="M90.644 38.848v.88c-.587.147-1.217.543-1.892 1.188-.645.645-1.247 1.687-1.804 3.124L76.96 70.176h-1.452L64.596 42.544c-.44-1.085-.924-1.819-1.452-2.2-.528-.381-1.027-.587-1.496-.616v-.88c.675.03 1.496.059 2.464.088.997.03 1.965.044 2.904.044A148.441 148.441 0 0073 38.848v.88c-.968.03-1.716.147-2.244.352-.528.205-.821.572-.88 1.1-.03.499.147 1.247.528 2.244l8.14 21.252-.792.88 7.128-18.744c.675-1.79 1.012-3.183 1.012-4.18 0-1.027-.323-1.76-.968-2.2-.645-.44-1.584-.675-2.816-.704v-.88l2.684.088c.88.03 1.716.044 2.508.044.733 0 1.364-.015 1.892-.044.528-.03 1.012-.059 1.452-.088zm25.589 0a74.046 74.046 0 00-.264 3.432 106.53 106.53 0 00-.044 2.552c0 .675.015 1.32.044 1.936.03.616.059 1.144.088 1.584h-1.012c-.264-2.141-.63-3.813-1.1-5.016-.44-1.232-1.114-2.112-2.024-2.64-.909-.557-2.214-.836-3.916-.836h-2.332c-.938 0-1.657.088-2.156.264-.469.147-.792.47-.968.968-.176.47-.264 1.217-.264 2.244v21.912c0 1.085.118 1.907.352 2.464.235.528.675.88 1.32 1.056.646.176 1.599.279 2.86.308V70a43.338 43.338 0 00-3.08-.088c-1.261-.03-2.566-.044-3.916-.044-1.173 0-2.302.015-3.388.044-1.056 0-1.95.03-2.684.088v-.88c.998-.059 1.746-.176 2.244-.352.5-.176.822-.528.968-1.056.176-.528.264-1.32.264-2.376V43.512c0-1.085-.088-1.877-.264-2.376-.146-.528-.484-.88-1.012-1.056-.498-.205-1.232-.323-2.2-.352v-.88c1.144.03 2.332.059 3.564.088 1.262 0 2.494.015 3.696.044h10.604c1.731-.03 3.271-.073 4.62-.132zm-6.732 15.4v.88h-8.536v-.88h8.536zm.924-5.808c-.117 1.672-.176 2.948-.176 3.828.03.88.044 1.687.044 2.42 0 .733.015 1.54.044 2.42.03.88.103 2.156.22 3.828h-1.012a20.069 20.069 0 00-.528-2.772c-.234-.91-.66-1.643-1.276-2.2-.616-.557-1.54-.836-2.772-.836v-.88c.939 0 1.672-.19 2.2-.572.558-.381.983-.88 1.276-1.496a7.473 7.473 0 00.616-1.892 32.7 32.7 0 00.352-1.848h1.012zM67.888 78.52c.405 0 .747.059 1.024.176a1.7 1.7 0 01.672.448c.192.203.325.475.4.816.075.33.112.752.112 1.264v4.288c0 .448.085.752.256.912.17.16.459.24.864.24V87a30.4 30.4 0 00-.848-.032 19.38 19.38 0 00-1.104-.032c-.363 0-.72.01-1.072.032-.341.01-.603.021-.784.032v-.336c.352 0 .597-.08.736-.24.15-.16.224-.464.224-.912v-4.736c0-.31-.021-.587-.064-.832a1.036 1.036 0 00-.304-.608c-.15-.16-.39-.24-.72-.24-.373 0-.71.112-1.008.336-.288.224-.523.533-.704.928-.17.384-.256.816-.256 1.296v3.856c0 .448.075.752.224.912.15.16.395.24.736.24V87a31.29 31.29 0 00-.768-.032 16.96 16.96 0 00-1.056-.032c-.363 0-.741.01-1.136.032-.395.01-.688.021-.88.032v-.336c.416 0 .71-.08.88-.24.181-.16.272-.464.272-.912v-5.024c0-.48-.08-.832-.24-1.056-.16-.235-.464-.352-.912-.352v-.336a10.632 10.632 0 002 0c.32-.043.613-.101.88-.176v1.744c.277-.64.645-1.099 1.104-1.376.47-.277.96-.416 1.472-.416zm4.816 0c.405 0 .747.059 1.024.176a1.7 1.7 0 01.672.448c.192.203.325.475.4.816.075.33.112.752.112 1.264v4.288c0 .448.085.752.256.912.181.16.48.24.896.24V87a30.4 30.4 0 00-.848-.032 20.513 20.513 0 00-1.136-.032c-.363 0-.72.01-1.072.032-.341.01-.603.021-.784.032v-.336c.352 0 .597-.08.736-.24.15-.16.224-.464.224-.912v-4.736c0-.31-.021-.587-.064-.832a1.036 1.036 0 00-.304-.608c-.16-.16-.41-.24-.752-.24-.373 0-.71.117-1.008.352-.288.224-.523.533-.704.928-.17.384-.256.816-.256 1.296l-.064-1.328c.288-.704.672-1.184 1.152-1.44.49-.256.997-.384 1.52-.384zm7.56 8.592c-.447 0-.831-.085-1.151-.256a1.7 1.7 0 01-.72-.704c-.16-.299-.24-.64-.24-1.024 0-.47.106-.848.32-1.136.213-.299.485-.539.816-.72.341-.181.698-.33 1.072-.448.384-.128.741-.245 1.072-.352.341-.117.618-.25.832-.4.224-.15.336-.347.336-.592v-1.088c0-.384-.064-.688-.192-.912a1.019 1.019 0 00-.496-.496 1.709 1.709 0 00-.736-.144 3.02 3.02 0 00-.784.112 1.129 1.129 0 00-.656.4c.235.064.427.192.576.384a1 1 0 01.24.688c0 .299-.102.533-.304.704-.192.17-.438.256-.736.256-.33 0-.576-.101-.736-.304a1.194 1.194 0 01-.24-.736c0-.288.07-.523.208-.704a2.75 2.75 0 01.576-.512c.256-.17.581-.315.976-.432a4.824 4.824 0 011.344-.176c.459 0 .853.053 1.184.16a1.9 1.9 0 01.848.48c.266.245.442.555.528.928.085.363.128.805.128 1.328v4.416c0 .267.032.459.096.576.075.107.192.16.352.16a.617.617 0 00.304-.08 2.35 2.35 0 00.368-.24l.16.272a3.207 3.207 0 01-.688.432c-.224.107-.512.16-.864.16-.341 0-.619-.053-.832-.16a1.064 1.064 0 01-.48-.464 1.751 1.751 0 01-.144-.752c-.278.448-.608.79-.992 1.024-.384.235-.832.352-1.344.352zm.769-.768c.299 0 .576-.085.832-.256.267-.17.512-.427.736-.768v-3.184c-.117.17-.288.32-.512.448-.224.117-.464.24-.72.368a5.208 5.208 0 00-.736.448 1.98 1.98 0 00-.56.624c-.15.256-.224.581-.224.976 0 .416.106.747.32.992.213.235.501.352.864.352zm9.31-7.824c.427 0 .795.07 1.104.208.32.128.55.245.688.352.352.277.57.096.656-.544h.352a25.1 25.1 0 00-.048 1.088c-.01.416-.016.97-.016 1.664h-.352a4.909 4.909 0 00-.336-1.152 2.268 2.268 0 00-.672-.928c-.288-.245-.667-.368-1.136-.368-.352 0-.645.101-.88.304-.235.192-.352.48-.352.864 0 .32.096.597.288.832.192.235.437.453.736.656.31.203.64.421.992.656.395.267.747.533 1.056.8.32.256.57.544.752.864.192.32.288.693.288 1.12 0 .49-.133.907-.4 1.248a2.444 2.444 0 01-1.024.784c-.427.17-.896.256-1.408.256a3.12 3.12 0 01-.72-.08 3.554 3.554 0 01-.624-.176l-.352-.192a5.413 5.413 0 00-.32-.208c-.107-.075-.203-.064-.288.032-.085.096-.15.267-.192.512h-.352c.021-.341.037-.757.048-1.248.01-.49.016-1.141.016-1.952h.352c.075.587.187 1.104.336 1.552.15.448.368.8.656 1.056.299.245.704.368 1.216.368.203 0 .405-.043.608-.128.203-.096.368-.245.496-.448.139-.203.208-.475.208-.816 0-.47-.165-.853-.496-1.152a8.949 8.949 0 00-1.248-.976 52.66 52.66 0 01-1.04-.752 3.655 3.655 0 01-.784-.848c-.203-.32-.304-.699-.304-1.136 0-.48.112-.875.336-1.184a2.08 2.08 0 01.928-.688 3.17 3.17 0 011.232-.24zm8.514 0c.427 0 .795.07 1.104.208.32.128.55.245.688.352.352.277.571.096.656-.544h.352a25.1 25.1 0 00-.048 1.088c-.01.416-.016.97-.016 1.664h-.352a4.909 4.909 0 00-.336-1.152 2.263 2.263 0 00-.672-.928c-.288-.245-.666-.368-1.136-.368-.352 0-.645.101-.88.304-.234.192-.352.48-.352.864 0 .32.096.597.288.832.192.235.438.453.736.656.31.203.64.421.992.656.395.267.747.533 1.056.8.32.256.571.544.752.864.192.32.288.693.288 1.12 0 .49-.133.907-.4 1.248a2.442 2.442 0 01-1.024.784 3.769 3.769 0 01-2.128.176 3.554 3.554 0 01-.624-.176l-.352-.192a5.446 5.446 0 00-.32-.208c-.106-.075-.202-.064-.288.032-.085.096-.149.267-.192.512h-.352c.022-.341.038-.757.048-1.248.011-.49.016-1.141.016-1.952h.352c.075.587.187 1.104.336 1.552.15.448.368.8.656 1.056.299.245.704.368 1.216.368.203 0 .406-.043.608-.128.203-.096.368-.245.496-.448.139-.203.208-.475.208-.816 0-.47-.165-.853-.496-1.152a8.949 8.949 0 00-1.248-.976 59.334 59.334 0 01-1.04-.752 3.653 3.653 0 01-.784-.848c-.202-.32-.304-.699-.304-1.136 0-.48.112-.875.336-1.184a2.08 2.08 0 01.928-.688 3.17 3.17 0 011.232-.24zm7.795 8.592c-.448 0-.832-.085-1.152-.256a1.7 1.7 0 01-.72-.704c-.16-.299-.24-.64-.24-1.024 0-.47.106-.848.32-1.136.213-.299.485-.539.816-.72.341-.181.698-.33 1.072-.448.384-.128.741-.245 1.072-.352a3.38 3.38 0 00.832-.4c.224-.15.336-.347.336-.592v-1.088c0-.384-.064-.688-.192-.912a1.022 1.022 0 00-.496-.496 1.71 1.71 0 00-.736-.144c-.246 0-.507.037-.784.112a1.127 1.127 0 00-.656.4c.234.064.426.192.576.384a1 1 0 01.24.688c0 .299-.102.533-.304.704-.192.17-.438.256-.736.256-.331 0-.576-.101-.736-.304a1.194 1.194 0 01-.24-.736c0-.288.069-.523.208-.704.149-.181.341-.352.576-.512.256-.17.581-.315.976-.432a4.821 4.821 0 011.344-.176c.458 0 .853.053 1.184.16.341.096.624.256.848.48.266.245.442.555.528.928.085.363.128.805.128 1.328v4.416c0 .267.032.459.096.576.074.107.192.16.352.16a.62.62 0 00.304-.08c.106-.053.229-.133.368-.24l.16.272a3.222 3.222 0 01-.688.432c-.224.107-.512.16-.864.16-.342 0-.619-.053-.832-.16a1.058 1.058 0 01-.48-.464 1.751 1.751 0 01-.144-.752c-.278.448-.608.79-.992 1.024-.384.235-.832.352-1.344.352zm.768-.768c.298 0 .576-.085.832-.256.266-.17.512-.427.736-.768v-3.184c-.118.17-.288.32-.512.448-.224.117-.464.24-.72.368a5.174 5.174 0 00-.736.448c-.224.16-.411.368-.56.624-.15.256-.224.581-.224.976 0 .416.106.747.32.992.213.235.501.352.864.352zm9.342 3.664a7.447 7.447 0 01-1.664-.176c-.501-.117-.907-.299-1.216-.544a1.106 1.106 0 01-.448-.912c0-.352.149-.661.448-.928.299-.267.72-.47 1.264-.608l.112.256c-.224.096-.4.25-.528.464a1.44 1.44 0 00-.176.704c0 .47.219.832.656 1.088.437.256 1.013.384 1.728.384.48 0 .933-.064 1.36-.192.437-.117.789-.315 1.056-.592.277-.277.416-.635.416-1.072 0-.341-.123-.63-.368-.864-.245-.224-.731-.336-1.456-.336h-1.12c-.373 0-.72-.032-1.04-.096a1.63 1.63 0 01-.784-.368c-.192-.192-.288-.459-.288-.8 0-.384.16-.747.48-1.088.32-.341.859-.677 1.616-1.008l.192.144c-.309.17-.587.347-.832.528-.235.17-.352.384-.352.64 0 .341.245.512.736.512h1.904c.501 0 .955.07 1.36.208.405.128.731.336.976.624s.368.667.368 1.136c0 .501-.165.97-.496 1.408-.32.448-.805.805-1.456 1.072-.651.277-1.467.416-2.448.416zm.096-6.416c-.544 0-1.04-.085-1.488-.256a2.284 2.284 0 01-1.056-.832c-.256-.373-.384-.853-.384-1.44s.128-1.067.384-1.44a2.157 2.157 0 011.056-.832 3.932 3.932 0 011.488-.272c.565 0 1.067.09 1.504.272.437.17.784.448 1.04.832.256.373.384.853.384 1.44s-.128 1.067-.384 1.44-.603.65-1.04.832c-.437.17-.939.256-1.504.256zm0-.288c.373 0 .661-.16.864-.48.203-.32.304-.907.304-1.76s-.101-1.44-.304-1.76c-.203-.33-.491-.496-.864-.496-.352 0-.635.165-.848.496-.213.32-.32.907-.32 1.76s.107 1.44.32 1.76c.213.32.496.48.848.48zm2.368-3.44l-.288-.112a2.3 2.3 0 01.768-.976c.363-.277.741-.416 1.136-.416.299 0 .533.085.704.256.181.16.272.39.272.688 0 .33-.091.565-.272.704a.85.85 0 01-.544.208.762.762 0 01-.48-.176c-.139-.117-.219-.299-.24-.544-.021-.256.059-.581.24-.976l.176.064c-.427.17-.741.352-.944.544a2.724 2.724 0 00-.528.736zm8.167-1.344c.938 0 1.674.283 2.208.848.533.565.8 1.461.8 2.688h-5.52l-.032-.304h3.856a6.169 6.169 0 00-.128-1.44c-.096-.448-.246-.805-.448-1.072a.958.958 0 00-.8-.4c-.459 0-.859.245-1.2.736-.331.48-.534 1.253-.608 2.32l.048.08c-.011.15-.022.315-.032.496-.011.17-.016.341-.016.512 0 .736.112 1.355.336 1.856.224.501.517.88.88 1.136.362.245.73.368 1.104.368.288 0 .565-.043.832-.128a2.39 2.39 0 00.784-.464c.245-.224.464-.528.656-.912l.32.128c-.128.363-.326.72-.592 1.072-.267.352-.608.64-1.024.864-.416.213-.902.32-1.456.32-.747 0-1.398-.165-1.952-.496a3.34 3.34 0 01-1.28-1.456c-.299-.63-.448-1.376-.448-2.24 0-.95.154-1.76.464-2.432.309-.672.741-1.184 1.296-1.536.565-.363 1.216-.544 1.952-.544zm13.552 0c.427 0 .795.07 1.104.208.32.128.549.245.688.352.352.277.571.096.656-.544h.352a25.1 25.1 0 00-.048 1.088c-.011.416-.016.97-.016 1.664h-.352a4.909 4.909 0 00-.336-1.152 2.263 2.263 0 00-.672-.928c-.288-.245-.667-.368-1.136-.368-.352 0-.645.101-.88.304-.235.192-.352.48-.352.864 0 .32.096.597.288.832.192.235.437.453.736.656.309.203.64.421.992.656.395.267.747.533 1.056.8.32.256.571.544.752.864.192.32.288.693.288 1.12 0 .49-.133.907-.4 1.248a2.442 2.442 0 01-1.024.784c-.427.17-.896.256-1.408.256a3.12 3.12 0 01-.72-.08 3.554 3.554 0 01-.624-.176l-.352-.192a5.413 5.413 0 00-.32-.208c-.107-.075-.203-.064-.288.032-.085.096-.149.267-.192.512h-.352c.021-.341.037-.757.048-1.248.011-.49.016-1.141.016-1.952h.352a8.26 8.26 0 00.336 1.552c.149.448.368.8.656 1.056.299.245.704.368 1.216.368.203 0 .405-.043.608-.128.203-.096.368-.245.496-.448.139-.203.208-.475.208-.816 0-.47-.165-.853-.496-1.152a8.949 8.949 0 00-1.248-.976 54.453 54.453 0 01-1.04-.752 3.662 3.662 0 01-.784-.848c-.203-.32-.304-.699-.304-1.136 0-.48.112-.875.336-1.184a2.08 2.08 0 01.928-.688c.384-.16.795-.24 1.232-.24zm8.338-2.416v2.656h2.208v.32h-2.208v6.288c0 .437.08.747.24.928.16.181.39.272.688.272.278 0 .523-.112.736-.336.224-.224.416-.603.576-1.136l.304.112c-.128.565-.357 1.045-.688 1.44-.32.384-.794.576-1.424.576-.362 0-.666-.048-.912-.144a1.777 1.777 0 01-.64-.384 1.937 1.937 0 01-.48-.88c-.085-.341-.128-.795-.128-1.36V79.08h-1.472v-.32h1.472v-2.336c.331-.01.64-.037.928-.08.288-.053.555-.133.8-.24zm11.625 2.464v6.704c0 .48.08.837.24 1.072.171.224.475.336.912.336v.336a10.293 10.293 0 00-2 0c-.32.032-.613.09-.88.176v-1.744c-.267.64-.64 1.099-1.12 1.376-.469.267-.965.4-1.488.4-.395 0-.731-.059-1.008-.176a1.945 1.945 0 01-.688-.432 1.782 1.782 0 01-.4-.816c-.075-.341-.112-.768-.112-1.28v-4.032c0-.48-.08-.832-.24-1.056-.16-.235-.464-.352-.912-.352v-.336a10.627 10.627 0 002 0c.32-.043.613-.101.88-.176v6.4c0 .31.021.592.064.848s.144.459.304.608c.16.15.416.224.768.224.373 0 .704-.112.992-.336.299-.224.533-.528.704-.912.171-.384.256-.816.256-1.296v-3.616c0-.48-.08-.832-.24-1.056-.16-.235-.464-.352-.912-.352v-.336a10.627 10.627 0 002 0c.32-.043.613-.101.88-.176zm10.686-4.112v10.8c0 .48.08.837.24 1.072.17.224.474.336.912.336V87a10.308 10.308 0 00-.992-.048c-.363 0-.704.016-1.024.048-.31.032-.598.09-.864.176v-10.8c0-.48-.086-.832-.256-1.056-.16-.235-.459-.352-.896-.352v-.336a10.627 10.627 0 002 0c.32-.043.613-.101.88-.176zm-3.6 4.064a2.7 2.7 0 011.28.304c.394.203.672.544.832 1.024l-.192.176c-.15-.384-.368-.661-.656-.832a1.795 1.795 0 00-.976-.272c-.608 0-1.104.325-1.488.976-.384.64-.571 1.632-.56 2.976 0 .885.074 1.61.224 2.176.149.555.368.965.656 1.232.298.267.656.4 1.072.4.416 0 .789-.176 1.12-.528.341-.352.544-.859.608-1.52l.144.336c-.107.725-.363 1.285-.768 1.68-.406.384-.95.576-1.632.576-.651 0-1.227-.155-1.728-.464-.491-.32-.87-.8-1.136-1.44-.267-.65-.4-1.467-.4-2.448 0-.97.16-1.776.48-2.416.33-.65.768-1.136 1.312-1.456a3.498 3.498 0 011.808-.48zm8.702-3.808c.331 0 .608.107.832.32a.991.991 0 01.336.768c0 .31-.112.57-.336.784a1.193 1.193 0 01-.832.304c-.33 0-.608-.101-.832-.304a1.04 1.04 0 01-.336-.784.99.99 0 01.336-.768c.224-.213.502-.32.832-.32zm.96 3.856v6.944c0 .448.086.752.256.912.182.16.48.24.896.24V87c-.181-.01-.464-.021-.848-.032a20.213 20.213 0 00-2.304 0c-.394.01-.688.021-.88.032v-.336c.416 0 .71-.08.88-.24.182-.16.272-.464.272-.912v-5.024c0-.48-.08-.832-.24-1.056-.16-.235-.464-.352-.912-.352v-.336a10.643 10.643 0 002 0c.32-.043.614-.101.88-.176zm7.197-.048c.715 0 1.35.15 1.904.448.555.299.998.768 1.328 1.408.331.64.496 1.477.496 2.512s-.165 1.872-.496 2.512c-.33.63-.773 1.093-1.328 1.392-.554.288-1.189.432-1.904.432-.704 0-1.338-.144-1.904-.432-.565-.299-1.013-.763-1.344-1.392-.32-.64-.48-1.477-.48-2.512s.16-1.872.48-2.512c.331-.64.779-1.11 1.344-1.408.566-.299 1.2-.448 1.904-.448zm0 .32c-.554 0-1.008.32-1.36.96-.352.63-.528 1.659-.528 3.088 0 1.43.176 2.459.528 3.088.352.619.806.928 1.36.928.544 0 .992-.31 1.344-.928.363-.63.544-1.659.544-3.088 0-1.43-.181-2.459-.544-3.088-.352-.64-.8-.96-1.344-.96z"/><defs><linearGradient id="a" x1="14.208" x2="22.549" y1="-38.398" y2="106.728" gradientUnits="userSpaceOnUse"><stop offset=".363" stop-color="#4B2A16"/><stop offset=".371" stop-color="#EAB872"/><stop offset=".568" stop-color="#AE824E"/><stop offset=".865" stop-color="#533018"/><stop offset=".872" stop-color="#FFEAC2"/></linearGradient></defs></svg>